<?xml version="1.0" encoding="UTF-8"?>
<svg version="1.1" xmlns="http://www.w3.org/2000/svg" width="852" height="50">
<path d="M0 0 C2.93111174 0.05021246 5.8622252 0.10032372 8.79333878 0.15042925 C20.05216029 0.34311514 31.31092461 0.53882635 42.56962776 0.73831034 C46.0223808 0.79947186 49.47514514 0.8599103 52.9279232 0.91964197 C63.12809249 1.09663412 73.32780911 1.289364 83.52729654 1.50209856 C85.96614848 1.5521615 88.40504117 1.5997185 90.84394836 1.64700747 C94.9676185 1.72795561 99.09097038 1.81888797 103.2142781 1.91651487 C104.75894145 1.95179738 106.30367417 1.98418944 107.84846509 2.01335669 C131.47665957 2.46676398 131.47665957 2.46676398 136.88425064 7.55048037 C137.50925064 10.92548037 137.50925064 10.92548037 136.88425064 14.55048037 C132.23772987 19.51936412 128.48664885 20.42377683 121.84128189 20.84735537 C120.96889374 20.9179114 120.09650558 20.98846743 119.19768143 21.06116152 C110.22593714 21.72404925 101.24793192 21.85391654 92.25510025 21.81122255 C89.55508735 21.80041366 86.85572923 21.81124984 84.15573502 21.82391787 C73.89103942 21.83092807 64.01684049 21.25135292 53.88425064 19.55048037 C53.55425064 18.23048037 53.22425064 16.91048037 52.88425064 15.55048037 C51.95255051 15.55809389 51.02085037 15.56570742 50.0609169 15.57355165 C33.85855348 15.65837422 17.66107724 15.29443928 1.46243477 14.99496126 C-8.18727745 14.8171299 -17.8371862 14.65031016 -27.48708725 14.48309755 C-28.50389049 14.46547129 -29.52069373 14.44784503 -30.56830919 14.42968464 C-103.21544154 13.17259772 -175.84722107 12.24738519 -248.50621319 12.29881334 C-251.16042402 12.30046924 -253.81463412 12.30141038 -256.46884537 12.3020978 C-312.56529324 12.31745071 -368.61604782 12.96271731 -424.68516159 14.83031511 C-427.63435989 14.92817167 -430.58360322 15.02455227 -433.53286362 15.12051821 C-473.07515311 16.40783295 -512.61336888 17.8090637 -552.1449852 19.39160585 C-554.67625312 19.49288458 -557.20754177 19.59364737 -559.73885727 19.69372988 C-590.15070974 20.89748998 -620.5415489 22.24804363 -650.46340561 28.21844912 C-651.44180405 28.41051943 -652.42020248 28.60258974 -653.42824936 28.80048037 C-654.22875717 28.97063662 -655.02926498 29.14079287 -655.85403061 29.31610537 C-658.46999083 29.58718933 -660.57495883 29.18005678 -663.11574936 28.55048037 C-664.04131543 25.77378215 -664.30870426 23.87351142 -664.36574936 20.98798037 C-664.39153061 20.2029413 -664.41731186 19.41790224 -664.44387436 18.60907412 C-664.33559311 17.92973818 -664.22731186 17.25040224 -664.11574936 16.55048037 C-635.46470438 -2.55021629 -568.02317985 4.93466759 -535.11574936 3.55048037 C-534.37217934 3.51914003 -533.62860931 3.4877997 -532.86250687 3.45550966 C-483.4417598 1.37723222 -434.00942268 -0.20236674 -384.55741978 -1.30449915 C-379.92732219 -1.40782891 -375.29739171 -1.51663776 -370.66750717 -1.62920713 C-279.37290551 -3.81656098 -187.85276625 -2.91093439 0 0 Z " fill="#0FAFEB" transform="translate(699.1157493591309,10.449519634246826)"/>
<path d="M0 0 C0.33 0.66 0.66 1.32 1 2 C-10.97253982 2.93005905 -22.89893631 3.18193666 -34.90381622 3.26036072 C-38.14912022 3.2817172 -41.39433728 3.30869739 -44.6395874 3.33703613 C-52.68145266 3.4061971 -60.72337898 3.46644037 -68.76531982 3.52606201 C-75.60275177 3.57700344 -82.44013108 3.63175983 -89.27748871 3.69187927 C-92.47267594 3.7183936 -95.6678685 3.73922635 -98.86309814 3.7598877 C-100.81270594 3.77648386 -102.76231143 3.79335509 -104.71191406 3.81054688 C-105.59811935 3.81473129 -106.48432465 3.81891571 -107.39738464 3.82322693 C-108.21276199 3.83157059 -109.02813934 3.83991425 -109.8682251 3.84851074 C-110.57381687 3.85366447 -111.27940865 3.85881821 -112.00638199 3.86412811 C-114.10663587 4.0072676 -115.96553779 4.47521299 -118 5 C-120.20008438 5.08747283 -122.40267347 5.11766415 -124.60449219 5.11352539 C-125.58560219 5.11374443 -125.58560219 5.11374443 -126.58653259 5.1139679 C-128.74001426 5.11327341 -130.89340852 5.10550283 -133.046875 5.09765625 C-134.54331414 5.09579042 -136.03975388 5.09436729 -137.53619385 5.09336853 C-141.46858415 5.08955635 -145.40093732 5.07973717 -149.33331299 5.06866455 C-153.34850563 5.05842249 -157.3637043 5.05386492 -161.37890625 5.04882812 C-169.25262117 5.03811372 -177.12630596 5.02105291 -185 5 C-185 4.67 -185 4.34 -185 4 C-78.79744989 0.87182349 -78.79744989 0.87182349 -40.75 0.3125 C-39.49686005 0.29389923 -38.24372009 0.27529846 -36.9526062 0.25613403 C-24.63490704 0.07845367 -12.31908152 -0.05696246 0 0 Z " fill="#3AAADE" transform="translate(399,8)"/>
<path d="M0 0 C-3 2 -3 2 -5 3 C-4.67 5.64 -4.34 8.28 -4 11 C-3.01 11 -2.02 11 -1 11 C-1 10.34 -1 9.68 -1 9 C-0.34 9 0.32 9 1 9 C1 9.66 1 10.32 1 11 C1.69480469 10.83628906 2.38960937 10.67257813 3.10546875 10.50390625 C6.2352816 9.95904004 9.13798083 9.90261517 12.3125 9.9375 C13.91544922 9.95103516 13.91544922 9.95103516 15.55078125 9.96484375 C16.35902344 9.97644531 17.16726562 9.98804688 18 10 C14.26889082 12.21928312 10.2733737 12.90827725 6.0625 13.6875 C5.35931641 13.82994141 4.65613281 13.97238281 3.93164062 14.11914062 C-0.00091511 14.85995009 -3.13756772 15.12622781 -7 14 C-7.92556607 11.22330178 -8.19295491 9.32303105 -8.25 6.4375 C-8.27578125 5.65246094 -8.3015625 4.86742187 -8.328125 4.05859375 C-8.21984375 3.37925781 -8.1115625 2.69992188 -8 2 C-4.77208445 -0.1519437 -3.71599191 -0.20086443 0 0 Z " fill="#22ADDD" transform="translate(43,25)"/>
<path d="M0 0 C1.32751785 0.00212242 1.32751785 0.00212242 2.68185425 0.00428772 C5.51449941 0.00989485 8.34706614 0.02244854 11.1796875 0.03515625 C13.09765511 0.04017033 15.01562396 0.0447334 16.93359375 0.04882812 C21.64065532 0.05986659 26.3476581 0.077136 31.0546875 0.09765625 C31.0546875 0.42765625 31.0546875 0.75765625 31.0546875 1.09765625 C10.2646875 2.08765625 10.2646875 2.08765625 -10.9453125 3.09765625 C-10.9453125 2.43765625 -10.9453125 1.77765625 -10.9453125 1.09765625 C-7.56138242 -0.59430879 -3.72053459 -0.02220924 0 0 Z " fill="#37AED7" transform="translate(154.9453125,26.90234375)"/>
<path d="M0 0 C0 0.66 0 1.32 0 2 C-10.62280106 3.39315424 -21.31126627 3.09675083 -32 3 C-32 2.67 -32 2.34 -32 2 C-10.46808511 -0.38297872 -10.46808511 -0.38297872 0 0 Z " fill="#31A9DF" transform="translate(105,18)"/>
<path d="M0 0 C0 0.66 0 1.32 0 2 C1.65 2 3.3 2 5 2 C5.33 2.66 5.66 3.32 6 4 C1.56923077 6.09230769 1.56923077 6.09230769 -1.3125 5.625 C-1.869375 5.41875 -2.42625 5.2125 -3 5 C-2.34 4.34 -1.68 3.68 -1 3 C-4.3 2.67 -7.6 2.34 -11 2 C-6.78370866 -0.10814567 -4.60209225 -0.17700355 0 0 Z " fill="#12C0F2" transform="translate(611,9)"/>
<path d="M0 0 C-0.33 0.66 -0.66 1.32 -1 2 C-8.58691638 3.63695194 -16.36527912 2.86606781 -24 2 C-24 1.67 -24 1.34 -24 1 C-15.97667603 0.09958689 -8.07029553 -0.11547323 0 0 Z " fill="#1DB4E5" transform="translate(103,30)"/>
<path d="M0 0 C4.75 0.75 4.75 0.75 7 3 C7.3125 6.5 7.3125 6.5 7 10 C6.01 10.66 5.02 11.32 4 12 C4 8.7 4 5.4 4 2 C2.68 1.67 1.36 1.34 0 1 C0 0.67 0 0.34 0 0 Z " fill="#2DA5D7" transform="translate(829,15)"/>
<path d="M0 0 C2.29295236 0.28138058 4.58435456 0.5754186 6.875 0.875 C8.78925781 1.11863281 8.78925781 1.11863281 10.7421875 1.3671875 C14 2 14 2 16 4 C10.84828377 4.09038099 6.08086796 3.84681133 1 3 C0.67 2.01 0.34 1.02 0 0 Z " fill="#2DACD8" transform="translate(752,27)"/>
<path d="M0 0 C-2 1.33333333 -4 2.66666667 -6 4 C-6.73343428 7.06556598 -6.73343428 7.06556598 -7 10 C-7.33 10 -7.66 10 -8 10 C-8.29296875 3.9453125 -8.29296875 3.9453125 -8 2 C-4.77208445 -0.1519437 -3.71599191 -0.20086443 0 0 Z " fill="#42A8C7" transform="translate(43,25)"/>
</svg>
