<?xml version="1.0" encoding="UTF-8"?>
<svg version="1.1" xmlns="http://www.w3.org/2000/svg" width="1570" height="141">
<path d="M0 0 C518.1 0 1036.2 0 1570 0 C1570 46.53 1570 93.06 1570 141 C1051.9 141 533.8 141 0 141 C0 94.47 0 47.94 0 0 Z " fill="#FDFDFD" transform="translate(0,0)"/>
<path d="M0 0 C14.34415331 0.43609168 28.69183526 0.64538672 43.04052734 0.87524414 C76.42059293 1.41582483 76.42059293 1.41582483 92.64654541 1.81494141 C94.25357203 1.85439136 95.86062752 1.89268676 97.4677124 1.9296875 C122.69634509 2.5170766 122.69634509 2.5170766 127.66552734 5.37524414 C127.91552734 8.18774414 127.91552734 8.18774414 127.66552734 11.37524414 C124.6699332 14.35237681 122.16868059 14.82135828 118.03662109 15.10571289 C116.92834961 15.18660156 115.82007813 15.26749023 114.67822266 15.35083008 C112.90850098 15.45572754 112.90850098 15.45572754 111.10302734 15.56274414 C109.89098633 15.64169922 108.67894531 15.7206543 107.43017578 15.80200195 C92.24491272 16.73023582 77.6972099 16.89175901 62.66552734 14.37524414 C62.33552734 13.38524414 62.00552734 12.39524414 61.66552734 11.37524414 C37.88324023 10.97596964 14.10083254 10.5846579 -9.68172455 10.20178986 C-20.73481722 10.02368114 -31.78786309 9.84332213 -42.84082031 9.65698242 C-87.09097938 8.91221401 -131.33482327 8.22917293 -175.59228516 8.25805664 C-176.40023466 8.25847773 -177.20818417 8.25889881 -178.04061699 8.25933266 C-248.98495438 8.3041911 -319.90568585 10.1260375 -390.79681778 12.78043365 C-393.27820444 12.87314188 -395.75962746 12.96481965 -398.24105835 13.05633545 C-415.05704203 13.67960467 -431.86308628 14.40281714 -448.66259766 15.37915039 C-449.68888275 15.43791351 -449.68888275 15.43791351 -450.73590088 15.49786377 C-468.73700295 16.53848157 -486.84422925 17.71063053 -504.44482422 21.77392578 C-507.33447266 22.37524414 -507.33447266 22.37524414 -510.33447266 22.37524414 C-511.49222326 18.90199234 -511.40313918 16.01456967 -511.33447266 12.37524414 C-485.80778048 7.42422324 -460.01936951 5.67776726 -434.09228516 4.38305664 C-433.26198854 4.34105637 -432.43169193 4.29905609 -431.57623482 4.25578308 C-397.51343561 2.53813772 -363.42329837 1.42909293 -329.33447266 0.37524414 C-328.43126785 0.34724983 -327.52806305 0.31925552 -326.5974884 0.2904129 C-241.38731039 -2.33721905 -156.07273434 -2.32849597 0 0 Z " fill="#07B1EF" transform="translate(966.33447265625,110.624755859375)"/>
<path d="M0 0 C3.85054869 1.12015962 5.25708051 1.64550847 7.4375 5 C8.65743886 9.42543338 8.82045687 12.89368016 7.3125 17.25 C5.29282662 20.21218763 3.03553371 22.5387049 0.4375 25 C0.1075 25.66 -0.2225 26.32 -0.5625 27 C0.59126403 29.83604051 0.59126403 29.83604051 2.25 32.9375 C2.79269531 33.99839844 3.33539062 35.05929688 3.89453125 36.15234375 C5.42435238 39.07920845 5.42435238 39.07920845 7.4375 42 C8.4275 38.7 9.4175 35.4 10.4375 32 C12.0875 31.67 13.7375 31.34 15.4375 31 C17.53671505 33.09921505 16.68809238 37.22954642 16.6953125 40.02734375 C16.43915557 42.98091075 15.77725764 44.8890767 14.5625 47.5625 C13.60857222 49.70125907 13.60857222 49.70125907 13.4375 52 C14.7131062 54.87436596 16.24191687 57.21762527 18.1171875 59.73828125 C19.4375 62 19.4375 62 19.1328125 64.29296875 C18.78863281 65.13794922 18.78863281 65.13794922 18.4375 66 C16.4575 66.495 16.4575 66.495 14.4375 67 C11.67397057 63.77588233 9.91680193 60.96479572 8.4375 57 C7.51517578 57.63228516 7.51517578 57.63228516 6.57421875 58.27734375 C5.76597656 58.82519531 4.95773437 59.37304688 4.125 59.9375 C3.32449219 60.48277344 2.52398438 61.02804688 1.69921875 61.58984375 C-4.08799902 65.19810906 -10.98720325 64.76372363 -17.5625 64 C-22.10749105 62.02183372 -24.725965 59.17637734 -27.5625 55.1875 C-29.32801171 49.55993143 -29.4746638 44.42364163 -27.125 38.9375 C-23.49216215 32.46326398 -17.53536599 27.43496908 -10.5625 25 C-10.8925 24.175 -11.2225 23.35 -11.5625 22.5 C-13.14412571 16.96431003 -13.58611543 12.37587411 -10.875 7.25 C-5.71634615 0 -5.71634615 0 0 0 Z " fill="#090909" transform="translate(657.5625,26)"/>
<path d="M0 0 C0 8.25 0 16.5 0 25 C2.64 23.68 5.28 22.36 8 21 C13.14296951 19.91608928 17.70437735 20.43993186 22.3125 23 C27.25690934 26.50312402 30.10745504 31.32236513 32 37 C32.94493163 45.112913 31.60086204 51.22510425 27 58 C24.5625 60.4375 24.5625 60.4375 22 62 C21.113125 62.5775 20.22625 63.155 19.3125 63.75 C12.7661543 66.22031913 5.77926251 65.19634044 -1 64 C-1.94875 63.835 -2.8975 63.67 -3.875 63.5 C-6 63 -6 63 -7 62 C-7.10945858 60.21111813 -7.14908939 58.41791949 -7.16113281 56.62573242 C-7.17074036 55.47751511 -7.1803479 54.32929779 -7.19024658 53.14628601 C-7.19449646 51.89531631 -7.19874634 50.64434662 -7.203125 49.35546875 C-7.20882507 48.07899979 -7.21452515 46.80253082 -7.22039795 45.48738098 C-7.22986656 42.77955556 -7.23675355 40.07184148 -7.24023438 37.36401367 C-7.24571197 33.89700198 -7.26971941 30.43038446 -7.29820633 26.96349621 C-7.32133581 23.65666111 -7.32328312 20.34988058 -7.328125 17.04296875 C-7.3404718 15.79807175 -7.3528186 14.55317474 -7.36553955 13.27055359 C-7.36253845 12.11287979 -7.35953735 10.95520599 -7.35644531 9.76245117 C-7.36009094 8.74398605 -7.36373657 7.72552094 -7.36749268 6.67619324 C-6.65693365 1.50168669 -5.22976239 0 0 0 Z " fill="#0B0B0B" transform="translate(274,26)"/>
<path d="M0 0 C1.53515625 1.21484375 1.53515625 1.21484375 2.59765625 3.83984375 C2.53515625 6.21484375 2.53515625 6.21484375 1.53515625 8.21484375 C1.26997976 11.24990921 1.30355724 14.29448037 1.28515625 17.33984375 C1.26453125 18.17 1.24390625 19.00015625 1.22265625 19.85546875 C1.18600837 25.70080481 2.29759954 29.82834954 4.53515625 35.21484375 C4.72265625 38.71484375 4.72265625 38.71484375 4.53515625 41.21484375 C2.78515625 41.96484375 2.78515625 41.96484375 0.53515625 42.21484375 C-1.71484375 40.27734375 -1.71484375 40.27734375 -3.46484375 38.21484375 C-3.99851562 38.43140625 -4.5321875 38.64796875 -5.08203125 38.87109375 C-10.90483703 41.04709037 -16.25380173 42.156552 -22.46484375 41.21484375 C-27.35957182 38.85812283 -29.78099977 35.88672031 -32.46484375 31.21484375 C-34.77035348 24.29831456 -34.47289276 16.41927748 -31.46484375 9.77734375 C-28.18649211 4.04954188 -23.65806503 1.01614806 -18.02734375 -2.16015625 C-11.49483944 -3.75344998 -5.90937517 -3.30126128 0 0 Z " fill="#070707" transform="translate(989.46484375,49.78515625)"/>
<path d="M0 0 C1.53515625 1.21484375 1.53515625 1.21484375 2.59765625 3.83984375 C2.53515625 6.21484375 2.53515625 6.21484375 1.53515625 8.21484375 C1.26997976 11.24990921 1.30355724 14.29448037 1.28515625 17.33984375 C1.26453125 18.17 1.24390625 19.00015625 1.22265625 19.85546875 C1.18600837 25.70080481 2.29759954 29.82834954 4.53515625 35.21484375 C4.72265625 38.71484375 4.72265625 38.71484375 4.53515625 41.21484375 C2.78515625 41.96484375 2.78515625 41.96484375 0.53515625 42.21484375 C-1.71484375 40.27734375 -1.71484375 40.27734375 -3.46484375 38.21484375 C-3.99851562 38.43140625 -4.5321875 38.64796875 -5.08203125 38.87109375 C-10.90483703 41.04709037 -16.25380173 42.156552 -22.46484375 41.21484375 C-27.35957182 38.85812283 -29.78099977 35.88672031 -32.46484375 31.21484375 C-34.77035348 24.29831456 -34.47289276 16.41927748 -31.46484375 9.77734375 C-28.18649211 4.04954188 -23.65806503 1.01614806 -18.02734375 -2.16015625 C-11.49483944 -3.75344998 -5.90937517 -3.30126128 0 0 Z " fill="#070707" transform="translate(537.46484375,49.78515625)"/>
<path d="M0 0 C1.53515625 1.21484375 1.53515625 1.21484375 2.59765625 3.83984375 C2.53515625 6.21484375 2.53515625 6.21484375 1.53515625 8.21484375 C1.26997976 11.24990921 1.30355724 14.29448037 1.28515625 17.33984375 C1.26453125 18.17 1.24390625 19.00015625 1.22265625 19.85546875 C1.18600837 25.70080481 2.29759954 29.82834954 4.53515625 35.21484375 C4.72265625 38.71484375 4.72265625 38.71484375 4.53515625 41.21484375 C2.78515625 41.96484375 2.78515625 41.96484375 0.53515625 42.21484375 C-1.71484375 40.27734375 -1.71484375 40.27734375 -3.46484375 38.21484375 C-3.99851562 38.43140625 -4.5321875 38.64796875 -5.08203125 38.87109375 C-10.90483703 41.04709037 -16.25380173 42.156552 -22.46484375 41.21484375 C-27.35957182 38.85812283 -29.78099977 35.88672031 -32.46484375 31.21484375 C-34.77035348 24.29831456 -34.47289276 16.41927748 -31.46484375 9.77734375 C-28.18649211 4.04954188 -23.65806503 1.01614806 -18.02734375 -2.16015625 C-11.49483944 -3.75344998 -5.90937517 -3.30126128 0 0 Z " fill="#070707" transform="translate(495.46484375,49.78515625)"/>
<path d="M0 0 C1.53515625 1.21484375 1.53515625 1.21484375 2.59765625 3.83984375 C2.53515625 6.21484375 2.53515625 6.21484375 1.53515625 8.21484375 C1.26997976 11.24990921 1.30355724 14.29448037 1.28515625 17.33984375 C1.26453125 18.17 1.24390625 19.00015625 1.22265625 19.85546875 C1.18600837 25.70080481 2.29759954 29.82834954 4.53515625 35.21484375 C4.72265625 38.71484375 4.72265625 38.71484375 4.53515625 41.21484375 C2.78515625 41.96484375 2.78515625 41.96484375 0.53515625 42.21484375 C-1.71484375 40.27734375 -1.71484375 40.27734375 -3.46484375 38.21484375 C-3.99851563 38.43140625 -4.5321875 38.64796875 -5.08203125 38.87109375 C-10.90483703 41.04709037 -16.25380173 42.156552 -22.46484375 41.21484375 C-27.35957182 38.85812283 -29.78099977 35.88672031 -32.46484375 31.21484375 C-34.77035348 24.29831456 -34.47289276 16.41927748 -31.46484375 9.77734375 C-28.18649211 4.04954188 -23.65806503 1.01614806 -18.02734375 -2.16015625 C-11.49483944 -3.75344998 -5.90937517 -3.30126128 0 0 Z " fill="#070707" transform="translate(254.46484375,49.78515625)"/>
<path d="M0 0 C1.53515625 1.21484375 1.53515625 1.21484375 2.59765625 3.83984375 C2.53515625 6.21484375 2.53515625 6.21484375 1.53515625 8.21484375 C1.26997976 11.24990921 1.30355724 14.29448037 1.28515625 17.33984375 C1.26453125 18.17 1.24390625 19.00015625 1.22265625 19.85546875 C1.18600837 25.70080481 2.29759954 29.82834954 4.53515625 35.21484375 C4.72265625 38.71484375 4.72265625 38.71484375 4.53515625 41.21484375 C2.78515625 41.96484375 2.78515625 41.96484375 0.53515625 42.21484375 C-1.71484375 40.27734375 -1.71484375 40.27734375 -3.46484375 38.21484375 C-3.99851563 38.43140625 -4.5321875 38.64796875 -5.08203125 38.87109375 C-10.90483703 41.04709037 -16.25380173 42.156552 -22.46484375 41.21484375 C-27.35957182 38.85812283 -29.78099977 35.88672031 -32.46484375 31.21484375 C-34.77035348 24.29831456 -34.47289276 16.41927748 -31.46484375 9.77734375 C-28.18649211 4.04954188 -23.65806503 1.01614806 -18.02734375 -2.16015625 C-11.49483944 -3.75344998 -5.90937517 -3.30126128 0 0 Z " fill="#070707" transform="translate(167.46484375,49.78515625)"/>
<path d="M0 0 C4.875 0.875 4.875 0.875 6 2 C6.45459858 4.65463121 6.70243238 7.32189138 7 10 C7.48210938 9.50628906 7.96421875 9.01257812 8.4609375 8.50390625 C9.09257813 7.86324219 9.72421875 7.22257812 10.375 6.5625 C11.00148438 5.92441406 11.62796875 5.28632812 12.2734375 4.62890625 C14.78371825 2.2606097 15.84958993 2.01392686 19.375 1.6875 C23 2 23 2 25.4375 4 C26.2109375 4.99 26.2109375 4.99 27 6 C27.5775 5.71125 28.155 5.4225 28.75 5.125 C29.4925 4.75375 30.235 4.3825 31 4 C31.5775 3.62875 32.155 3.2575 32.75 2.875 C36.15927609 1.54917041 39.42948932 1.43212554 43 2 C46.16926863 3.79132575 47.60042711 5.06463619 49.03125 8.4140625 C50.39786644 13.47274754 50.99945959 18.55418477 51.625 23.75 C51.82609375 25.30074219 51.82609375 25.30074219 52.03125 26.8828125 C52.81389608 33.22384299 53.50328935 39.607047 53 46 C52 47 52 47 49.5625 47.25 C48.716875 47.1675 47.87125 47.085 47 47 C44.73406201 43.60109302 44.58698661 41.81433255 44.21875 37.79296875 C44.09886719 36.56642578 43.97898437 35.33988281 43.85546875 34.07617188 C43.73816406 32.79291016 43.62085938 31.50964844 43.5 30.1875 C43.26680924 27.65955841 43.02743539 25.13217795 42.78125 22.60546875 C42.67876953 21.48293701 42.57628906 20.36040527 42.47070312 19.20385742 C41.99242289 15.94842613 41.13339028 13.08278666 40 10 C38.9275 10.433125 37.855 10.86625 36.75 11.3125 C36.14671875 11.55613281 35.5434375 11.79976562 34.921875 12.05078125 C32.64400168 13.17582844 30.85877682 14.25510885 29 16 C28.47746496 18.13147634 28.47746496 18.13147634 28.6875 20.5 C28.73970703 21.8303125 28.73970703 21.8303125 28.79296875 23.1875 C29.06474563 26.8795633 29.40792151 30.56186694 29.76953125 34.24609375 C30.48519737 42.79769737 30.48519737 42.79769737 30 47 C29.34 47.66 28.68 48.32 28 49 C23.44444444 48.44444444 23.44444444 48.44444444 22 47 C21.77136572 45.37607668 21.60473772 43.74333652 21.46484375 42.109375 C21.33408447 40.58763672 21.33408447 40.58763672 21.20068359 39.03515625 C21.11383301 37.95105469 21.02698242 36.86695313 20.9375 35.75 C20.84807129 34.66074219 20.75864258 33.57148437 20.66650391 32.44921875 C20.07942788 24.94359159 19.73528704 17.52961299 20 10 C16.36288581 11.98444957 13.91652005 13.97489998 11.3125 17.1875 C9.55078125 19.35546875 9.55078125 19.35546875 8 21 C7.34 21 6.68 21 6 21 C6 28.92 6 36.84 6 45 C3.525 45.495 3.525 45.495 1 46 C-2.42564846 41.46303971 -2.42632523 37.75349333 -2.36328125 32.3046875 C-2.36377975 31.47542755 -2.36427826 30.6461676 -2.36479187 29.79177856 C-2.36245844 28.04524326 -2.35277315 26.29870415 -2.33618164 24.55224609 C-2.31251746 21.87697392 -2.31563496 19.20269452 -2.32226562 16.52734375 C-2.31669075 14.82811905 -2.30958208 13.12889855 -2.30078125 11.4296875 C-2.30169266 10.62965302 -2.30260406 9.82961853 -2.30354309 9.00534058 C-2.25423534 5.15454333 -2.18512262 3.27768394 0 0 Z " fill="#070707" transform="translate(897,45)"/>
<path d="M0 0 C4.22105791 1.71607557 6.30410357 5.14843458 8.375 9.0625 C11.27111621 16.38797042 11.00380873 23.98714154 8.4375 31.375 C6.3136124 36.08547928 3.36531154 39.25522175 -1 42 C-6.58240452 43.86080151 -12.05131969 43.93825348 -17.375 41.375 C-22.13873465 37.06495436 -25.43511592 31.87094246 -26.37109375 25.45703125 C-26.60132158 16.28854635 -23.82208389 9.54533428 -17.5 2.875 C-12.25112411 -1.33607533 -6.39985665 -1.15981757 0 0 Z " fill="#090909" transform="translate(1426,48)"/>
<path d="M0 0 C4.22105791 1.71607557 6.30410357 5.14843458 8.375 9.0625 C11.27111621 16.38797042 11.00380873 23.98714154 8.4375 31.375 C6.3136124 36.08547928 3.36531154 39.25522175 -1 42 C-6.58240452 43.86080151 -12.05131969 43.93825348 -17.375 41.375 C-22.13873465 37.06495436 -25.43511592 31.87094246 -26.37109375 25.45703125 C-26.60132158 16.28854635 -23.82208389 9.54533428 -17.5 2.875 C-12.25112411 -1.33607533 -6.39985665 -1.15981757 0 0 Z " fill="#090909" transform="translate(1255,48)"/>
<path d="M0 0 C4.22105791 1.71607557 6.30410357 5.14843458 8.375 9.0625 C11.27111621 16.38797042 11.00380873 23.98714154 8.4375 31.375 C6.3136124 36.08547928 3.36531154 39.25522175 -1 42 C-6.58240452 43.86080151 -12.05131969 43.93825348 -17.375 41.375 C-22.13873465 37.06495436 -25.43511592 31.87094246 -26.37109375 25.45703125 C-26.60132158 16.28854635 -23.82208389 9.54533428 -17.5 2.875 C-12.25112411 -1.33607533 -6.39985665 -1.15981757 0 0 Z " fill="#090909" transform="translate(1087,48)"/>
<path d="M0 0 C4.22105791 1.71607557 6.30410357 5.14843458 8.375 9.0625 C11.27111621 16.38797042 11.00380873 23.98714154 8.4375 31.375 C6.3136124 36.08547928 3.36531154 39.25522175 -1 42 C-6.58240452 43.86080151 -12.05131969 43.93825348 -17.375 41.375 C-22.13873465 37.06495436 -25.43511592 31.87094246 -26.37109375 25.45703125 C-26.60132158 16.28854635 -23.82208389 9.54533428 -17.5 2.875 C-12.25112411 -1.33607533 -6.39985665 -1.15981757 0 0 Z " fill="#090909" transform="translate(875,48)"/>
<path d="M0 0 C2 0.0625 2 0.0625 4 1 C5.82353227 4.76551473 6.62018742 8.57116601 7.40234375 12.6640625 C7.65306641 13.95183594 7.90378906 15.23960938 8.16210938 16.56640625 C8.42107717 17.9191744 8.67953816 19.27203966 8.9375 20.625 C10.86010612 30.6883155 12.7800882 40.690777 16.1875 50.375 C17.03360511 53.10857034 17.31569809 55.15871719 17 58 C15 60 15 60 12.625 60.125 C9.28715136 58.69449344 8.30963923 56.79247747 6.84765625 53.54296875 C5.27184706 48.81554117 4.62450089 43.93027016 4 39 C1.9194393 39.17338006 -0.16072696 39.36683239 -2.23046875 39.640625 C-5 40 -5 40 -7.98828125 40.171875 C-11.5654339 40.6264052 -13.87594984 41.15706578 -17 43 C-19.32534874 46.18975985 -20.88002125 49.71499675 -22.32641602 53.37329102 C-24.49954839 58.78476818 -24.49954839 58.78476818 -27.59765625 60.1171875 C-30 60 -30 60 -32 58 C-31.76718597 53.22731239 -29.90728434 49.50198463 -27.921875 45.2578125 C-26.65238939 42.14864859 -26.28377765 39.33438742 -26 36 C-25.38125 35.95875 -24.7625 35.9175 -24.125 35.875 C-23.42375 35.58625 -22.7225 35.2975 -22 35 C-21.73316406 34.17371094 -21.46632813 33.34742188 -21.19140625 32.49609375 C-19.65175072 27.97808818 -17.3240998 24.22696509 -14.8125 20.1875 C-14.32144775 19.39085938 -13.83039551 18.59421875 -13.32446289 17.7734375 C-9.37971064 11.44837632 -5.29014509 5.29014509 0 0 Z " fill="#070707" transform="translate(741,30)"/>
<path d="M0 0 C2 0.0625 2 0.0625 4 1 C5.82353227 4.76551473 6.62018742 8.57116601 7.40234375 12.6640625 C7.65306641 13.95183594 7.90378906 15.23960938 8.16210938 16.56640625 C8.42107717 17.9191744 8.67953816 19.27203966 8.9375 20.625 C10.86010612 30.6883155 12.7800882 40.690777 16.1875 50.375 C17.03360511 53.10857034 17.31569809 55.15871719 17 58 C15 60 15 60 12.625 60.125 C9.28715136 58.69449344 8.30963923 56.79247747 6.84765625 53.54296875 C5.27184706 48.81554117 4.62450089 43.93027016 4 39 C1.9194393 39.17338006 -0.16072696 39.36683239 -2.23046875 39.640625 C-5 40 -5 40 -7.98828125 40.171875 C-11.5654339 40.6264052 -13.87594984 41.15706578 -17 43 C-19.32534874 46.18975985 -20.88002125 49.71499675 -22.32641602 53.37329102 C-24.49954839 58.78476818 -24.49954839 58.78476818 -27.59765625 60.1171875 C-30 60 -30 60 -32 58 C-31.76718597 53.22731239 -29.90728434 49.50198463 -27.921875 45.2578125 C-26.65238939 42.14864859 -26.28377765 39.33438742 -26 36 C-25.38125 35.95875 -24.7625 35.9175 -24.125 35.875 C-23.42375 35.58625 -22.7225 35.2975 -22 35 C-21.73316406 34.17371094 -21.46632813 33.34742188 -21.19140625 32.49609375 C-19.65175072 27.97808818 -17.3240998 24.22696509 -14.8125 20.1875 C-14.32144775 19.39085938 -13.83039551 18.59421875 -13.32446289 17.7734375 C-9.37971064 11.44837632 -5.29014509 5.29014509 0 0 Z " fill="#070707" transform="translate(68,30)"/>
<path d="M0 0 C0.66 0.66 1.32 1.32 2 2 C1.625 4.125 1.625 4.125 1 6 C-0.93552734 5.94779297 -0.93552734 5.94779297 -2.91015625 5.89453125 C-4.62759106 5.86637658 -6.34504007 5.83907823 -8.0625 5.8125 C-8.91005859 5.78736328 -9.75761719 5.76222656 -10.63085938 5.73632812 C-16.2276725 5.67150017 -20.04873947 6.34087048 -25 9 C-27.41121859 10.95633975 -27.41121859 10.95633975 -27.125 14.625 C-27.08375 15.73875 -27.0425 16.8525 -27 18 C-21.14788639 19.36123147 -21.14788639 19.36123147 -15.234375 20.40234375 C-7.31362803 21.5639058 -1.99286432 23.78267085 3.5 29.6875 C5.59090049 34.30490525 5.95996612 38.02017574 5 43 C2.21699769 49.87053696 -2.07853507 53.18220906 -8.73046875 56.125 C-16.253053 59.02527345 -25.39130989 59.36785014 -33.171875 57.05859375 C-36.89817712 55.30017604 -39.46768544 53.6083595 -42.1875 50.5 C-43.13849841 47.57385104 -42.91407822 45.90843071 -42 43 C-39.525 42.505 -39.525 42.505 -37 42 C-36.29875 42.94875 -35.5975 43.8975 -34.875 44.875 C-31.63000054 48.70753419 -28.71730402 49.6562163 -23.74609375 50.28515625 C-17.01424994 50.69601996 -11.47175637 48.99859119 -6 45 C-4.0817048 42.09930514 -3.99853542 41.04174065 -4.125 37.4375 C-4.69294837 34.01836719 -4.69294837 34.01836719 -6.75 32.1875 C-11.19987679 29.83895392 -14.76709906 28.79692716 -19.8125 28.625 C-26.36825246 28.16480555 -30.98158972 26.54678367 -36 22.3125 C-37.6295231 18.54422783 -37.59167113 15.02899862 -37 11 C-34.26896929 4.49754593 -28.01168778 1.20918039 -22 -2 C-14.62181263 -4.42248178 -6.94350239 -3.20017658 0 0 Z " fill="#090909" transform="translate(1217,33)"/>
<path d="M0 0 C0.66 0.66 1.32 1.32 2 2 C1.625 4.125 1.625 4.125 1 6 C-0.93552734 5.94779297 -0.93552734 5.94779297 -2.91015625 5.89453125 C-4.62759106 5.86637658 -6.34504007 5.83907823 -8.0625 5.8125 C-8.91005859 5.78736328 -9.75761719 5.76222656 -10.63085938 5.73632812 C-16.2276725 5.67150017 -20.04873947 6.34087048 -25 9 C-27.41121859 10.95633975 -27.41121859 10.95633975 -27.125 14.625 C-27.08375 15.73875 -27.0425 16.8525 -27 18 C-21.14788639 19.36123147 -21.14788639 19.36123147 -15.234375 20.40234375 C-7.31362803 21.5639058 -1.99286432 23.78267085 3.5 29.6875 C5.59090049 34.30490525 5.95996612 38.02017574 5 43 C2.21699769 49.87053696 -2.07853507 53.18220906 -8.73046875 56.125 C-16.253053 59.02527345 -25.39130989 59.36785014 -33.171875 57.05859375 C-36.89817712 55.30017604 -39.46768544 53.6083595 -42.1875 50.5 C-43.13849841 47.57385104 -42.91407822 45.90843071 -42 43 C-39.525 42.505 -39.525 42.505 -37 42 C-36.29875 42.94875 -35.5975 43.8975 -34.875 44.875 C-31.63000054 48.70753419 -28.71730402 49.6562163 -23.74609375 50.28515625 C-17.01424994 50.69601996 -11.47175637 48.99859119 -6 45 C-4.0817048 42.09930514 -3.99853542 41.04174065 -4.125 37.4375 C-4.69294837 34.01836719 -4.69294837 34.01836719 -6.75 32.1875 C-11.19987679 29.83895392 -14.76709906 28.79692716 -19.8125 28.625 C-26.36825246 28.16480555 -30.98158972 26.54678367 -36 22.3125 C-37.6295231 18.54422783 -37.59167113 15.02899862 -37 11 C-34.26896929 4.49754593 -28.01168778 1.20918039 -22 -2 C-14.62181263 -4.42248178 -6.94350239 -3.20017658 0 0 Z " fill="#090909" transform="translate(592,33)"/>
<path d="M0 0 C0.66 0.66 1.32 1.32 2 2 C1.625 4.125 1.625 4.125 1 6 C-0.93552734 5.94779297 -0.93552734 5.94779297 -2.91015625 5.89453125 C-4.62759106 5.86637658 -6.34504007 5.83907823 -8.0625 5.8125 C-8.91005859 5.78736328 -9.75761719 5.76222656 -10.63085938 5.73632812 C-16.2276725 5.67150017 -20.04873947 6.34087048 -25 9 C-27.41121859 10.95633975 -27.41121859 10.95633975 -27.125 14.625 C-27.08375 15.73875 -27.0425 16.8525 -27 18 C-21.14788639 19.36123147 -21.14788639 19.36123147 -15.234375 20.40234375 C-7.31362803 21.5639058 -1.99286432 23.78267085 3.5 29.6875 C5.59090049 34.30490525 5.95996612 38.02017574 5 43 C2.21699769 49.87053696 -2.07853507 53.18220906 -8.73046875 56.125 C-16.253053 59.02527345 -25.39130989 59.36785014 -33.171875 57.05859375 C-36.89817712 55.30017604 -39.46768544 53.6083595 -42.1875 50.5 C-43.13849841 47.57385104 -42.91407822 45.90843071 -42 43 C-39.525 42.505 -39.525 42.505 -37 42 C-36.29875 42.94875 -35.5975 43.8975 -34.875 44.875 C-31.63000054 48.70753419 -28.71730402 49.6562163 -23.74609375 50.28515625 C-17.01424994 50.69601996 -11.47175637 48.99859119 -6 45 C-4.0817048 42.09930514 -3.99853542 41.04174065 -4.125 37.4375 C-4.69294837 34.01836719 -4.69294837 34.01836719 -6.75 32.1875 C-11.19987679 29.83895392 -14.76709906 28.79692716 -19.8125 28.625 C-26.36825246 28.16480555 -30.98158972 26.54678367 -36 22.3125 C-37.6295231 18.54422783 -37.59167113 15.02899862 -37 11 C-34.26896929 4.49754593 -28.01168778 1.20918039 -22 -2 C-14.62181263 -4.42248178 -6.94350239 -3.20017658 0 0 Z " fill="#090909" transform="translate(451,33)"/>
<path d="M0 0 C3.63020476 1.72235992 5.29656045 2.78077818 7.578125 6.203125 C8.015625 9.578125 8.015625 9.578125 7.578125 13.203125 C3.87199582 17.7177341 -0.31525891 19.96005071 -5.484375 22.390625 C-6.54495117 22.90399414 -6.54495117 22.90399414 -7.62695312 23.42773438 C-8.97660048 24.08038075 -10.3288486 24.72768617 -11.68408203 25.36865234 C-13.05020176 26.02465083 -14.39499136 26.7250842 -15.73046875 27.44140625 C-17.421875 28.203125 -17.421875 28.203125 -20.421875 28.203125 C-16.34813121 32.76002978 -16.34813121 32.76002978 -10.77734375 34.37109375 C-9.20919922 34.38076172 -9.20919922 34.38076172 -7.609375 34.390625 C-6.57167969 34.40480469 -5.53398437 34.41898438 -4.46484375 34.43359375 C-0.59466283 34.1404735 2.4470129 33.47562612 5.078125 30.515625 C5.573125 30.0825 6.068125 29.649375 6.578125 29.203125 C9.265625 29.515625 9.265625 29.515625 11.578125 30.203125 C11.703125 33.390625 11.703125 33.390625 10.578125 37.203125 C3.35935097 42.37810819 -4.68841965 44.13556911 -13.421875 43.203125 C-19.37133175 41.39869704 -22.85385379 38.17673033 -26.421875 33.203125 C-29.09833608 27.85020284 -28.24973112 18.2670925 -26.703125 12.54296875 C-21.5212208 1.69858053 -11.74310992 -3.86386198 0 0 Z " fill="#0A0A0A" transform="translate(364.421875,47.796875)"/>
<path d="M0 0 C2.625 0.375 2.625 0.375 5 1 C5.66 3.31 6.32 5.62 7 8 C7.48210937 7.57847656 7.96421875 7.15695313 8.4609375 6.72265625 C9.09257813 6.17480469 9.72421875 5.62695312 10.375 5.0625 C11.00148438 4.51722656 11.62796875 3.97195312 12.2734375 3.41015625 C15.79070043 0.5374596 18.51402232 0.55140223 23 1 C27.83306456 4.10045651 29.57295637 6.53262899 31 12 C31.24846035 14.60710344 31.41642284 17.12462805 31.484375 19.734375 C31.5084845 20.45361145 31.53259399 21.1728479 31.55743408 21.91387939 C31.60545395 23.42308126 31.64890319 24.93243485 31.68798828 26.44189453 C31.75020234 28.75753133 31.83321123 31.07180957 31.91796875 33.38671875 C31.96218484 34.85673384 32.00519647 36.32678577 32.046875 37.796875 C32.07279724 38.48956482 32.09871948 39.18225464 32.12542725 39.89593506 C32.16182681 41.59741437 32.0897789 43.3005011 32 45 C31.34 45.66 30.68 46.32 30 47 C27.375 46.625 27.375 46.625 25 46 C22.82860995 38.87924719 22.60577894 32.0374821 22.4375 24.625 C22.37776119 22.28374696 22.31416234 19.94258817 22.24609375 17.6015625 C22.22216553 16.57369629 22.1982373 15.54583008 22.17358398 14.48681641 C22.15985694 11.99984131 22.15985694 11.99984131 21 10 C17.73951953 10.27946975 16.11051308 10.91435237 13.5 12.9375 C6.97266182 20.93348927 5.42699874 27.79841238 5.27636719 37.93041992 C5.17831563 43.82168437 5.17831563 43.82168437 3 46 C0.4375 45.75 0.4375 45.75 -2 45 C-3.14084664 42.71830672 -3.12896004 41.4484306 -3.1328125 38.9140625 C-3.13490723 38.07464111 -3.13700195 37.23521973 -3.13916016 36.37036133 C-3.1344873 35.46439209 -3.12981445 34.55842285 -3.125 33.625 C-3.12161621 32.69776123 -3.11823242 31.77052246 -3.11474609 30.81518555 C-3.06626283 24.14309907 -2.90770653 17.47874452 -2.625 10.8125 C-2.59422363 9.9580127 -2.56344727 9.10352539 -2.53173828 8.22314453 C-2.23714444 2.23714444 -2.23714444 2.23714444 0 0 Z " fill="#090909" transform="translate(1448,45)"/>
<path d="M0 0 C2.625 0.375 2.625 0.375 5 1 C5.66 3.31 6.32 5.62 7 8 C7.48210937 7.57847656 7.96421875 7.15695313 8.4609375 6.72265625 C9.09257813 6.17480469 9.72421875 5.62695312 10.375 5.0625 C11.00148438 4.51722656 11.62796875 3.97195312 12.2734375 3.41015625 C15.79070043 0.5374596 18.51402232 0.55140223 23 1 C27.83306456 4.10045651 29.57295637 6.53262899 31 12 C31.24846035 14.60710344 31.41642284 17.12462805 31.484375 19.734375 C31.5084845 20.45361145 31.53259399 21.1728479 31.55743408 21.91387939 C31.60545395 23.42308126 31.64890319 24.93243485 31.68798828 26.44189453 C31.75020234 28.75753133 31.83321123 31.07180957 31.91796875 33.38671875 C31.96218484 34.85673384 32.00519647 36.32678577 32.046875 37.796875 C32.07279724 38.48956482 32.09871948 39.18225464 32.12542725 39.89593506 C32.16182681 41.59741437 32.0897789 43.3005011 32 45 C31.34 45.66 30.68 46.32 30 47 C27.375 46.625 27.375 46.625 25 46 C22.82860995 38.87924719 22.60577894 32.0374821 22.4375 24.625 C22.37776119 22.28374696 22.31416234 19.94258817 22.24609375 17.6015625 C22.22216553 16.57369629 22.1982373 15.54583008 22.17358398 14.48681641 C22.15985694 11.99984131 22.15985694 11.99984131 21 10 C17.73951953 10.27946975 16.11051308 10.91435237 13.5 12.9375 C6.97266182 20.93348927 5.42699874 27.79841238 5.27636719 37.93041992 C5.17831563 43.82168437 5.17831563 43.82168437 3 46 C0.4375 45.75 0.4375 45.75 -2 45 C-3.14084664 42.71830672 -3.12896004 41.4484306 -3.1328125 38.9140625 C-3.13490723 38.07464111 -3.13700195 37.23521973 -3.13916016 36.37036133 C-3.1344873 35.46439209 -3.12981445 34.55842285 -3.125 33.625 C-3.12161621 32.69776123 -3.11823242 31.77052246 -3.11474609 30.81518555 C-3.06626283 24.14309907 -2.90770653 17.47874452 -2.625 10.8125 C-2.59422363 9.9580127 -2.56344727 9.10352539 -2.53173828 8.22314453 C-2.23714444 2.23714444 -2.23714444 2.23714444 0 0 Z " fill="#090909" transform="translate(1109,45)"/>
<path d="M0 0 C2 2 2 2 2.23046875 4.56640625 C2.21628906 5.55511719 2.20210937 6.54382812 2.1875 7.5625 C2.18105469 8.55378906 2.17460938 9.54507813 2.16796875 10.56640625 C2 13 2 13 1 14 C-0.66617115 14.04063832 -2.33388095 14.042721 -4 14 C-4.33 12.35 -4.66 10.7 -5 9 C-7.11034072 9.53887445 -9.2132162 10.10704229 -11.3125 10.6875 C-13.07013672 11.15736328 -13.07013672 11.15736328 -14.86328125 11.63671875 C-18.46900132 13.20383744 -19.38665133 14.48790884 -21 18 C-20.443125 18.02578125 -19.88625 18.0515625 -19.3125 18.078125 C-11.80464896 18.63614096 -6.6761762 20.65834583 -1 25.625 C1.69618627 30.17481433 2.05707901 33.83205817 1 39 C-1.00978722 42.86132349 -3.92665852 45.48449753 -8 47 C-10.67233608 47.21843936 -13.20562107 47.32474486 -15.875 47.3125 C-16.56980469 47.32861328 -17.26460937 47.34472656 -17.98046875 47.36132812 C-22.74420616 47.36581375 -25.95112238 46.48371448 -30 44 C-32 42 -32 42 -32.1875 39.4375 C-32 37 -32 37 -31 36 C-27.27775401 35.70613847 -26.22213757 35.85190829 -23 38 C-20.12825505 38.28019979 -20.12825505 38.28019979 -17 38.1875 C-15.948125 38.18105469 -14.89625 38.17460938 -13.8125 38.16796875 C-10.91937878 38.11707549 -10.91937878 38.11707549 -8 37 C-8 35.02 -8 33.04 -8 31 C-12.03947968 29.15588971 -15.88579213 27.74025759 -20.1875 26.625 C-23.41933817 25.66577862 -24.98402301 25.01331416 -27.625 22.8125 C-29.43709227 19.10594762 -29.84874497 15.99224485 -29 12 C-25.25214967 4.92072716 -18.25396383 3.40347421 -11 1 C-9.93136719 0.6184375 -8.86273437 0.236875 -7.76171875 -0.15625 C-4.66534779 -1.10224169 -3.04832495 -1.01610832 0 0 Z " fill="#080808" transform="translate(1517,44)"/>
<path d="M0 0 C3.53571429 0.53571429 3.53571429 0.53571429 5 2 C5.07549296 3.91789869 5.08309122 5.83853905 5.0625 7.7578125 C5.05476563 8.94117188 5.04703125 10.12453125 5.0390625 11.34375 C5.01326293 13.84114835 4.98722585 16.33854425 4.9609375 18.8359375 C4.95320313 20.02703125 4.94546875 21.218125 4.9375 22.4453125 C4.92589844 23.53344238 4.91429687 24.62157227 4.90234375 25.74267578 C4.95850614 29.64030946 4.95850614 29.64030946 6 36 C11.28 36 16.56 36 22 36 C21.97679687 34.05996094 21.95359375 32.11992188 21.9296875 30.12109375 C21.91092417 27.55989969 21.89272458 24.99870146 21.875 22.4375 C21.84986328 20.52227539 21.84986328 20.52227539 21.82421875 18.56835938 C21.79188845 12.34477741 21.76538794 6.85046072 24 1 C25.99954746 0.95745644 28.00041636 0.95919217 30 1 C31 2 31 2 31.08901978 3.74597168 C31.06356583 4.88395203 31.06356583 4.88395203 31.03759766 6.04492188 C31.02072906 6.90251099 31.00386047 7.7601001 30.98648071 8.64367676 C30.9625827 9.57595093 30.93868469 10.5082251 30.9140625 11.46875 C30.89282318 12.41939331 30.87158386 13.37003662 30.84970093 14.3494873 C30.80335121 16.36374745 30.75441618 18.37794947 30.703125 20.39208984 C30.62533863 23.48652885 30.5581896 26.58107101 30.4921875 29.67578125 C30.44595259 31.62761943 30.39909846 33.57944307 30.3515625 35.53125 C30.33171295 36.46352417 30.3118634 37.39579834 30.29141235 38.35632324 C30.26823944 39.21391235 30.24506653 40.07150146 30.22119141 40.95507812 C30.20263092 41.71373169 30.18407043 42.47238525 30.16494751 43.25402832 C30 45 30 45 29 46 C27.33382885 46.04063832 25.66611905 46.042721 24 46 C23.67 45.34 23.34 44.68 23 44 C21.8553125 44.2475 21.8553125 44.2475 20.6875 44.5 C14.26680066 45.3706033 8.37195931 46.16517299 2.4375 43.25 C-4.04485402 37.26628859 -3.76606295 27.53370008 -4.1953125 19.21484375 C-4.28615702 13.14772778 -4.31523179 7.65945548 -2 2 C-1.34 1.34 -0.68 0.68 0 0 Z " fill="#0A0A0A" transform="translate(1300,46)"/>
<path d="M0 0 C3.53571429 0.53571429 3.53571429 0.53571429 5 2 C5.07549296 3.91789869 5.08309122 5.83853905 5.0625 7.7578125 C5.05476562 8.94117188 5.04703125 10.12453125 5.0390625 11.34375 C5.01326293 13.84114835 4.98722585 16.33854425 4.9609375 18.8359375 C4.95320312 20.02703125 4.94546875 21.218125 4.9375 22.4453125 C4.92589844 23.53344238 4.91429687 24.62157227 4.90234375 25.74267578 C4.95850614 29.64030946 4.95850614 29.64030946 6 36 C11.28 36 16.56 36 22 36 C21.97679687 34.05996094 21.95359375 32.11992188 21.9296875 30.12109375 C21.91092417 27.55989969 21.89272458 24.99870146 21.875 22.4375 C21.84986328 20.52227539 21.84986328 20.52227539 21.82421875 18.56835938 C21.79188845 12.34477741 21.76538794 6.85046072 24 1 C25.99954746 0.95745644 28.00041636 0.95919217 30 1 C31 2 31 2 31.08901978 3.74597168 C31.06356583 4.88395203 31.06356583 4.88395203 31.03759766 6.04492188 C31.02072906 6.90251099 31.00386047 7.7601001 30.98648071 8.64367676 C30.9625827 9.57595093 30.93868469 10.5082251 30.9140625 11.46875 C30.89282318 12.41939331 30.87158386 13.37003662 30.84970093 14.3494873 C30.80335121 16.36374745 30.75441618 18.37794947 30.703125 20.39208984 C30.62533863 23.48652885 30.5581896 26.58107101 30.4921875 29.67578125 C30.44595259 31.62761943 30.39909846 33.57944307 30.3515625 35.53125 C30.33171295 36.46352417 30.3118634 37.39579834 30.29141235 38.35632324 C30.26823944 39.21391235 30.24506653 40.07150146 30.22119141 40.95507812 C30.20263092 41.71373169 30.18407043 42.47238525 30.16494751 43.25402832 C30 45 30 45 29 46 C27.33382885 46.04063832 25.66611905 46.042721 24 46 C23.67 45.34 23.34 44.68 23 44 C21.8553125 44.2475 21.8553125 44.2475 20.6875 44.5 C14.26680066 45.3706033 8.37195931 46.16517299 2.4375 43.25 C-4.04485402 37.26628859 -3.76606295 27.53370008 -4.1953125 19.21484375 C-4.28615702 13.14772778 -4.31523179 7.65945548 -2 2 C-1.34 1.34 -0.68 0.68 0 0 Z " fill="#0A0A0A" transform="translate(773,46)"/>
<path d="M0 0 C2.4375 0.25 2.4375 0.25 5 1 C7.20914 4.31371 7.22481553 5.3446021 7.125 9.1875 C7.10695313 10.08855469 7.08890625 10.98960938 7.0703125 11.91796875 C7.04710937 12.60503906 7.02390625 13.29210938 7 14 C7.85464844 13.98839844 8.70929688 13.97679687 9.58984375 13.96484375 C10.69457031 13.95582031 11.79929687 13.94679688 12.9375 13.9375 C14.03964844 13.92589844 15.14179687 13.91429687 16.27734375 13.90234375 C19 14 19 14 20 15 C20.1875 17.4375 20.1875 17.4375 20 20 C18 22 18 22 15.3984375 22.1953125 C14.40070313 22.17210938 13.40296875 22.14890625 12.375 22.125 C10.87066406 22.09792969 10.87066406 22.09792969 9.3359375 22.0703125 C8.56507812 22.04710938 7.79421875 22.02390625 7 22 C7.0721875 22.71800781 7.144375 23.43601562 7.21875 24.17578125 C7.84354263 31.14395458 8.13388835 38.0681907 8.1875 45.0625 C8.20039062 45.88339111 8.21328125 46.70428223 8.2265625 47.55004883 C8.23845478 54.73521812 8.23845478 54.73521812 6 58 C4.33388095 58.042721 2.66617115 58.04063832 1 58 C-1.00503509 55.99496491 -0.25588663 51.99974556 -0.31640625 49.24609375 C-0.33718735 48.47064713 -0.35796844 47.6952005 -0.37937927 46.89625549 C-0.44495802 44.41009692 -0.50379799 41.92382955 -0.5625 39.4375 C-0.60567733 37.75584796 -0.64929136 36.07420706 -0.69335938 34.39257812 C-0.80064779 30.26183129 -0.90189132 26.13097464 -1 22 C-2.04800781 22.03480469 -2.04800781 22.03480469 -3.1171875 22.0703125 C-4.02726562 22.08835937 -4.93734375 22.10640625 -5.875 22.125 C-6.77992187 22.14820312 -7.68484375 22.17140625 -8.6171875 22.1953125 C-11 22 -11 22 -13 20 C-13.1875 17.4375 -13.1875 17.4375 -13 15 C-12 14 -12 14 -9.49609375 13.90234375 C-7.98208984 13.91974609 -7.98208984 13.91974609 -6.4375 13.9375 C-5.42558594 13.94652344 -4.41367188 13.95554687 -3.37109375 13.96484375 C-2.19740234 13.98224609 -2.19740234 13.98224609 -1 14 C-1.01160156 13.07316406 -1.02320313 12.14632812 -1.03515625 11.19140625 C-1.04417969 9.99386719 -1.05320312 8.79632813 -1.0625 7.5625 C-1.07410156 6.36753906 -1.08570313 5.17257813 -1.09765625 3.94140625 C-1 1 -1 1 0 0 Z " fill="#070707" transform="translate(1351,33)"/>
<path d="M0 0 C2.4375 0.25 2.4375 0.25 5 1 C7.20914 4.31371 7.22481553 5.3446021 7.125 9.1875 C7.10695313 10.08855469 7.08890625 10.98960938 7.0703125 11.91796875 C7.04710937 12.60503906 7.02390625 13.29210938 7 14 C7.85464844 13.98839844 8.70929687 13.97679687 9.58984375 13.96484375 C10.69457031 13.95582031 11.79929687 13.94679688 12.9375 13.9375 C14.03964844 13.92589844 15.14179687 13.91429687 16.27734375 13.90234375 C19 14 19 14 20 15 C20.1875 17.4375 20.1875 17.4375 20 20 C18 22 18 22 15.3984375 22.1953125 C14.40070313 22.17210938 13.40296875 22.14890625 12.375 22.125 C10.87066406 22.09792969 10.87066406 22.09792969 9.3359375 22.0703125 C8.56507813 22.04710938 7.79421875 22.02390625 7 22 C7.0721875 22.71800781 7.144375 23.43601562 7.21875 24.17578125 C7.84354263 31.14395458 8.13388835 38.0681907 8.1875 45.0625 C8.20039062 45.88339111 8.21328125 46.70428223 8.2265625 47.55004883 C8.23845478 54.73521812 8.23845478 54.73521812 6 58 C4.33388095 58.042721 2.66617115 58.04063832 1 58 C-1.00503509 55.99496491 -0.25588663 51.99974556 -0.31640625 49.24609375 C-0.33718735 48.47064713 -0.35796844 47.6952005 -0.37937927 46.89625549 C-0.44495802 44.41009692 -0.50379799 41.92382955 -0.5625 39.4375 C-0.60567733 37.75584796 -0.64929136 36.07420706 -0.69335938 34.39257812 C-0.80064779 30.26183129 -0.90189132 26.13097464 -1 22 C-2.04800781 22.03480469 -2.04800781 22.03480469 -3.1171875 22.0703125 C-4.02726563 22.08835937 -4.93734375 22.10640625 -5.875 22.125 C-6.77992188 22.14820312 -7.68484375 22.17140625 -8.6171875 22.1953125 C-11 22 -11 22 -13 20 C-13.1875 17.4375 -13.1875 17.4375 -13 15 C-12 14 -12 14 -9.49609375 13.90234375 C-7.98208984 13.91974609 -7.98208984 13.91974609 -6.4375 13.9375 C-5.42558594 13.94652344 -4.41367187 13.95554687 -3.37109375 13.96484375 C-2.19740234 13.98224609 -2.19740234 13.98224609 -1 14 C-1.01160156 13.07316406 -1.02320313 12.14632812 -1.03515625 11.19140625 C-1.04417969 9.99386719 -1.05320312 8.79632813 -1.0625 7.5625 C-1.07410156 6.36753906 -1.08570313 5.17257813 -1.09765625 3.94140625 C-1 1 -1 1 0 0 Z " fill="#070707" transform="translate(1012,33)"/>
<path d="M0 0 C2.4375 0.25 2.4375 0.25 5 1 C7.20914 4.31371 7.22481553 5.3446021 7.125 9.1875 C7.10695313 10.08855469 7.08890625 10.98960938 7.0703125 11.91796875 C7.04710937 12.60503906 7.02390625 13.29210938 7 14 C7.85464844 13.98839844 8.70929687 13.97679687 9.58984375 13.96484375 C10.69457031 13.95582031 11.79929687 13.94679688 12.9375 13.9375 C14.03964844 13.92589844 15.14179687 13.91429687 16.27734375 13.90234375 C19 14 19 14 20 15 C20.1875 17.4375 20.1875 17.4375 20 20 C18 22 18 22 15.3984375 22.1953125 C14.40070312 22.17210938 13.40296875 22.14890625 12.375 22.125 C10.87066406 22.09792969 10.87066406 22.09792969 9.3359375 22.0703125 C8.56507813 22.04710938 7.79421875 22.02390625 7 22 C7.0721875 22.71800781 7.144375 23.43601562 7.21875 24.17578125 C7.84354263 31.14395458 8.13388835 38.0681907 8.1875 45.0625 C8.20039062 45.88339111 8.21328125 46.70428223 8.2265625 47.55004883 C8.23845478 54.73521812 8.23845478 54.73521812 6 58 C4.33388095 58.042721 2.66617115 58.04063832 1 58 C-1.00503509 55.99496491 -0.25588663 51.99974556 -0.31640625 49.24609375 C-0.33718735 48.47064713 -0.35796844 47.6952005 -0.37937927 46.89625549 C-0.44495802 44.41009692 -0.50379799 41.92382955 -0.5625 39.4375 C-0.60567733 37.75584796 -0.64929136 36.07420706 -0.69335938 34.39257812 C-0.80064779 30.26183129 -0.90189132 26.13097464 -1 22 C-2.04800781 22.03480469 -2.04800781 22.03480469 -3.1171875 22.0703125 C-4.02726563 22.08835937 -4.93734375 22.10640625 -5.875 22.125 C-6.77992188 22.14820312 -7.68484375 22.17140625 -8.6171875 22.1953125 C-11 22 -11 22 -13 20 C-13.1875 17.4375 -13.1875 17.4375 -13 15 C-12 14 -12 14 -9.49609375 13.90234375 C-7.98208984 13.91974609 -7.98208984 13.91974609 -6.4375 13.9375 C-5.42558594 13.94652344 -4.41367187 13.95554687 -3.37109375 13.96484375 C-2.19740234 13.98224609 -2.19740234 13.98224609 -1 14 C-1.01160156 13.07316406 -1.02320313 12.14632812 -1.03515625 11.19140625 C-1.04417969 9.99386719 -1.05320312 8.79632813 -1.0625 7.5625 C-1.07410156 6.36753906 -1.08570313 5.17257813 -1.09765625 3.94140625 C-1 1 -1 1 0 0 Z " fill="#070707" transform="translate(824,33)"/>
<path d="M0 0 C1.2065625 0.0309375 1.2065625 0.0309375 2.4375 0.0625 C5.31711032 6.32026028 7.84599824 12.64818506 10.1875 19.125 C10.50332031 19.99060547 10.81914063 20.85621094 11.14453125 21.74804688 C11.91166745 23.85185978 12.67594379 25.95666224 13.4375 28.0625 C16.79075505 21.60711473 19.43993016 15.0586472 21.96875 8.24609375 C22.26007813 7.47652344 22.55140625 6.70695312 22.8515625 5.9140625 C23.1088916 5.22135254 23.3662207 4.52864258 23.63134766 3.81494141 C24.4375 2.0625 24.4375 2.0625 26.4375 0.0625 C29.0625 0.4375 29.0625 0.4375 31.4375 1.0625 C33.04440412 5.8670277 31.53479639 9.18552976 29.578125 13.59375 C29.12055817 14.66405457 29.12055817 14.66405457 28.65374756 15.75598145 C28.00741349 17.26136399 27.35477782 18.76405453 26.69628906 20.26416016 C25.693186 22.5495455 24.7082311 24.8420561 23.7265625 27.13671875 C23.09479573 28.60201381 22.4620161 30.06687268 21.828125 31.53125 C21.53423889 32.21159302 21.24035278 32.89193604 20.93756104 33.59289551 C19.32961632 37.24915487 17.57837861 40.68968291 15.4375 44.0625 C13.625 43.875 13.625 43.875 11.4375 43.0625 C8.84779826 39.30597612 7.16875164 35.23348598 5.51953125 31.00390625 C5.25742355 30.33713364 4.99531586 29.67036102 4.7252655 28.98338318 C4.17580048 27.57996782 3.62882864 26.17557403 3.08422852 24.77026367 C2.2523028 22.63092178 1.40485018 20.4981633 0.55664062 18.36523438 C0.02247333 16.99516719 -0.51076136 15.62473596 -1.04296875 14.25390625 C-1.42258003 13.30675499 -1.42258003 13.30675499 -1.80986023 12.34046936 C-3.29507957 8.44939515 -3.91260154 5.22136435 -3.5625 1.0625 C-2.5625 0.0625 -2.5625 0.0625 0 0 Z " fill="#090909" transform="translate(97.5625,46.9375)"/>
<path d="M0 0 C3.06043852 1.74150476 5.40021967 3.80043935 7 7 C7.14851844 8.93359586 7.22130833 10.87342097 7.25 12.8125 C7.27578125 13.85019531 7.3015625 14.88789062 7.328125 15.95703125 C6.8443521 20.443449 4.88562223 23.00702962 1.9375 26.3125 C-2.28104814 28.73592127 -6.23898096 28.79469641 -11 28 C-13.03102841 27.06462649 -15.03969838 26.07574048 -17 25 C-17.23329086 21.77206203 -17.37467674 18.54628768 -17.5 15.3125 C-17.56703125 14.40048828 -17.6340625 13.48847656 -17.703125 12.54882812 C-17.78237765 9.82451843 -17.73819881 7.62720185 -17 5 C-12.48742756 0.25693597 -6.35490003 -1.5007882 0 0 Z " fill="#F9F9F9" transform="translate(291,55)"/>
<path d="M0 0 C3 0.125 3 0.125 4 1.125 C4.1017016 3.57197899 4.13947684 5.99001962 4.1328125 8.4375 C4.13422241 9.19052399 4.13563232 9.94354797 4.13708496 10.71939087 C4.13923323 13.1879739 4.13290389 15.65642982 4.125 18.125 C4.12267365 19.37636749 4.12267365 19.37636749 4.12030029 20.65301514 C4.09685902 31.3558875 3.99849331 42.05289291 3.625 52.75 C3.59422363 53.77222656 3.56344727 54.79445312 3.53173828 55.84765625 C3.49290527 56.77707031 3.45407227 57.70648438 3.4140625 58.6640625 C3.3826416 59.46021973 3.3512207 60.25637695 3.31884766 61.07666016 C3 63.125 3 63.125 1 66.125 C-3.875 65.25 -3.875 65.25 -5 64.125 C-5.06961295 62.16590988 -5.06745669 60.20423973 -5.03759766 58.24414062 C-5.02072906 56.98613647 -5.00386047 55.72813232 -4.98648071 54.43200684 C-4.96259543 53.04841681 -4.93844977 51.66483127 -4.9140625 50.28125 C-4.89230625 48.87260392 -4.87085618 47.46395308 -4.84970093 46.05529785 C-4.80413965 43.09946398 -4.75490834 40.1437195 -4.703125 37.18798828 C-4.63689594 33.39136392 -4.5796322 29.59466736 -4.52509499 25.79785919 C-4.48233237 22.88797849 -4.43488604 19.97818882 -4.38599777 17.06840515 C-4.36303263 15.66812931 -4.34153149 14.26782869 -4.32149124 12.86750793 C-4.29281475 10.91354948 -4.25718183 8.9596968 -4.22119141 7.00585938 C-4.20263092 5.89190796 -4.18407043 4.77795654 -4.16494751 3.63024902 C-3.9244375 -0.0226552 -3.7213195 0.15505498 0 0 Z " fill="#060606" transform="translate(1282,24.875)"/>
<path d="M0 0 C3 0.125 3 0.125 4 1.125 C4.1017016 3.57197899 4.13947684 5.99001962 4.1328125 8.4375 C4.13422241 9.19052399 4.13563232 9.94354797 4.13708496 10.71939087 C4.13923323 13.1879739 4.13290389 15.65642982 4.125 18.125 C4.12267365 19.37636749 4.12267365 19.37636749 4.12030029 20.65301514 C4.09685902 31.3558875 3.99849331 42.05289291 3.625 52.75 C3.59422363 53.77222656 3.56344727 54.79445312 3.53173828 55.84765625 C3.49290527 56.77707031 3.45407227 57.70648438 3.4140625 58.6640625 C3.3826416 59.46021973 3.3512207 60.25637695 3.31884766 61.07666016 C3 63.125 3 63.125 1 66.125 C-3.875 65.25 -3.875 65.25 -5 64.125 C-5.06961295 62.16590988 -5.06745669 60.20423973 -5.03759766 58.24414062 C-5.02072906 56.98613647 -5.00386047 55.72813232 -4.98648071 54.43200684 C-4.96259543 53.04841681 -4.93844977 51.66483127 -4.9140625 50.28125 C-4.89230625 48.87260392 -4.87085618 47.46395308 -4.84970093 46.05529785 C-4.80413965 43.09946398 -4.75490834 40.1437195 -4.703125 37.18798828 C-4.63689594 33.39136392 -4.5796322 29.59466736 -4.52509499 25.79785919 C-4.48233237 22.88797849 -4.43488604 19.97818882 -4.38599777 17.06840515 C-4.36303263 15.66812931 -4.34153149 14.26782869 -4.32149124 12.86750793 C-4.29281475 10.91354948 -4.25718183 8.9596968 -4.22119141 7.00585938 C-4.20263092 5.89190796 -4.18407043 4.77795654 -4.16494751 3.63024902 C-3.9244375 -0.0226552 -3.7213195 0.15505498 0 0 Z " fill="#060606" transform="translate(322,24.875)"/>
<path d="M0 0 C3 0.125 3 0.125 4 1.125 C4.1017016 3.57197899 4.13947684 5.99001962 4.1328125 8.4375 C4.13422241 9.19052399 4.13563232 9.94354797 4.13708496 10.71939087 C4.13923323 13.1879739 4.13290389 15.65642982 4.125 18.125 C4.12267365 19.37636749 4.12267365 19.37636749 4.12030029 20.65301514 C4.09685902 31.3558875 3.99849331 42.05289291 3.625 52.75 C3.59422363 53.77222656 3.56344727 54.79445312 3.53173828 55.84765625 C3.49290527 56.77707031 3.45407227 57.70648438 3.4140625 58.6640625 C3.3826416 59.46021973 3.3512207 60.25637695 3.31884766 61.07666016 C3 63.125 3 63.125 1 66.125 C-3.875 65.25 -3.875 65.25 -5 64.125 C-5.06961295 62.16590988 -5.06745669 60.20423973 -5.03759766 58.24414062 C-5.02072906 56.98613647 -5.00386047 55.72813232 -4.98648071 54.43200684 C-4.96259543 53.04841681 -4.93844977 51.66483127 -4.9140625 50.28125 C-4.89230625 48.87260392 -4.87085618 47.46395308 -4.84970093 46.05529785 C-4.80413965 43.09946398 -4.75490834 40.1437195 -4.703125 37.18798828 C-4.63689594 33.39136392 -4.5796322 29.59466736 -4.52509499 25.79785919 C-4.48233237 22.88797849 -4.43488604 19.97818882 -4.38599777 17.06840515 C-4.36303263 15.66812931 -4.34153149 14.26782869 -4.32149124 12.86750793 C-4.29281475 10.91354948 -4.25718183 8.9596968 -4.22119141 7.00585938 C-4.20263092 5.89190796 -4.18407043 4.77795654 -4.16494751 3.63024902 C-3.9244375 -0.0226552 -3.7213195 0.15505498 0 0 Z " fill="#060606" transform="translate(209,24.875)"/>
<path d="M0 0 C0.28345896 4.1025782 0.52101861 8.20654936 0.75 12.3125 C0.87181641 14.06336914 0.87181641 14.06336914 0.99609375 15.84960938 C1.05410156 16.96787109 1.11210938 18.08613281 1.171875 19.23828125 C1.2347168 20.26993408 1.29755859 21.30158691 1.36230469 22.36450195 C1 25 1 25 -0.82324219 26.79760742 C-5.00734678 29.1088137 -9.28825393 29.8739529 -14 29 C-17.89575496 25.20413619 -19.18195907 22.20589959 -19.375 16.875 C-19.30627629 11.0487569 -17.98121253 7.27203158 -14 3 C-9.3776004 -0.97460488 -5.87796831 -1.05915658 0 0 Z " fill="#F7F7F7" transform="translate(983,55)"/>
<path d="M0 0 C0.28345896 4.1025782 0.52101861 8.20654936 0.75 12.3125 C0.87181641 14.06336914 0.87181641 14.06336914 0.99609375 15.84960938 C1.05410156 16.96787109 1.11210938 18.08613281 1.171875 19.23828125 C1.2347168 20.26993408 1.29755859 21.30158691 1.36230469 22.36450195 C1 25 1 25 -0.82324219 26.79760742 C-5.00734678 29.1088137 -9.28825393 29.8739529 -14 29 C-17.89575496 25.20413619 -19.18195907 22.20589959 -19.375 16.875 C-19.30627629 11.0487569 -17.98121253 7.27203158 -14 3 C-9.3776004 -0.97460488 -5.87796831 -1.05915658 0 0 Z " fill="#F7F7F7" transform="translate(531,55)"/>
<path d="M0 0 C0.28345896 4.1025782 0.52101861 8.20654936 0.75 12.3125 C0.87181641 14.06336914 0.87181641 14.06336914 0.99609375 15.84960938 C1.05410156 16.96787109 1.11210937 18.08613281 1.171875 19.23828125 C1.2347168 20.26993408 1.29755859 21.30158691 1.36230469 22.36450195 C1 25 1 25 -0.82324219 26.79760742 C-5.00734678 29.1088137 -9.28825393 29.8739529 -14 29 C-17.89575496 25.20413619 -19.18195907 22.20589959 -19.375 16.875 C-19.30627629 11.0487569 -17.98121253 7.27203158 -14 3 C-9.3776004 -0.97460488 -5.87796831 -1.05915658 0 0 Z " fill="#F7F7F7" transform="translate(489,55)"/>
<path d="M0 0 C0.28345896 4.1025782 0.52101861 8.20654936 0.75 12.3125 C0.87181641 14.06336914 0.87181641 14.06336914 0.99609375 15.84960938 C1.05410156 16.96787109 1.11210937 18.08613281 1.171875 19.23828125 C1.2347168 20.26993408 1.29755859 21.30158691 1.36230469 22.36450195 C1 25 1 25 -0.82324219 26.79760742 C-5.00734678 29.1088137 -9.28825393 29.8739529 -14 29 C-17.89575496 25.20413619 -19.18195907 22.20589959 -19.375 16.875 C-19.30627629 11.0487569 -17.98121253 7.27203158 -14 3 C-9.3776004 -0.97460488 -5.87796831 -1.05915658 0 0 Z " fill="#F7F7F7" transform="translate(248,55)"/>
<path d="M0 0 C0.28345896 4.1025782 0.52101861 8.20654936 0.75 12.3125 C0.87181641 14.06336914 0.87181641 14.06336914 0.99609375 15.84960938 C1.05410156 16.96787109 1.11210937 18.08613281 1.171875 19.23828125 C1.2347168 20.26993408 1.29755859 21.30158691 1.36230469 22.36450195 C1 25 1 25 -0.82324219 26.79760742 C-5.00734678 29.1088137 -9.28825393 29.8739529 -14 29 C-17.89575496 25.20413619 -19.18195907 22.20589959 -19.375 16.875 C-19.30627629 11.0487569 -17.98121253 7.27203158 -14 3 C-9.3776004 -0.97460488 -5.87796831 -1.05915658 0 0 Z " fill="#F7F7F7" transform="translate(161,55)"/>
<path d="M0 0 C2.18756368 1.41133141 2.77432735 2.28777071 3.55078125 4.73828125 C4.09949014 7.50091124 4.20738059 10.12106747 4.25 12.9375 C4.27578125 13.95714844 4.3015625 14.97679688 4.328125 16.02734375 C3.86449391 20.22762065 2.14682216 22.8122199 -0.75 25.8125 C-4.06779179 27.56355678 -6.30597275 27.51845997 -10 27 C-13.15954305 24.45862841 -14.71540886 22.85377341 -16 19 C-16.4393241 13.39861777 -15.64655903 8.91961174 -13 4 C-9.00462633 -0.56614134 -5.74183344 -0.64827152 0 0 Z " fill="#FAFAFA" transform="translate(1424,56)"/>
<path d="M0 0 C2.18756368 1.41133141 2.77432735 2.28777071 3.55078125 4.73828125 C4.09949014 7.50091124 4.20738059 10.12106747 4.25 12.9375 C4.27578125 13.95714844 4.3015625 14.97679688 4.328125 16.02734375 C3.86449391 20.22762065 2.14682216 22.8122199 -0.75 25.8125 C-4.06779179 27.56355678 -6.30597275 27.51845997 -10 27 C-13.15954305 24.45862841 -14.71540886 22.85377341 -16 19 C-16.4393241 13.39861777 -15.64655903 8.91961174 -13 4 C-9.00462633 -0.56614134 -5.74183344 -0.64827152 0 0 Z " fill="#FAFAFA" transform="translate(1253,56)"/>
<path d="M0 0 C2.18756368 1.41133141 2.77432735 2.28777071 3.55078125 4.73828125 C4.09949014 7.50091124 4.20738059 10.12106747 4.25 12.9375 C4.27578125 13.95714844 4.3015625 14.97679688 4.328125 16.02734375 C3.86449391 20.22762065 2.14682216 22.8122199 -0.75 25.8125 C-4.06779179 27.56355678 -6.30597275 27.51845997 -10 27 C-13.15954305 24.45862841 -14.71540886 22.85377341 -16 19 C-16.4393241 13.39861777 -15.64655903 8.91961174 -13 4 C-9.00462633 -0.56614134 -5.74183344 -0.64827152 0 0 Z " fill="#FAFAFA" transform="translate(1085,56)"/>
<path d="M0 0 C2.18756368 1.41133141 2.77432735 2.28777071 3.55078125 4.73828125 C4.09949014 7.50091124 4.20738059 10.12106747 4.25 12.9375 C4.27578125 13.95714844 4.3015625 14.97679688 4.328125 16.02734375 C3.86449391 20.22762065 2.14682216 22.8122199 -0.75 25.8125 C-4.06779179 27.56355678 -6.30597275 27.51845997 -10 27 C-13.15954305 24.45862841 -14.71540886 22.85377341 -16 19 C-16.4393241 13.39861777 -15.64655903 8.91961174 -13 4 C-9.00462633 -0.56614134 -5.74183344 -0.64827152 0 0 Z " fill="#FAFAFA" transform="translate(873,56)"/>
<path d="M0 0 C1.70758253 2.90534565 3.38738354 5.82583418 5.0625 8.75 C5.54783203 9.575 6.03316406 10.4 6.53320312 11.25 C7.21479492 12.44882813 7.21479492 12.44882813 7.91015625 13.671875 C8.54642944 14.77160645 8.54642944 14.77160645 9.19555664 15.89355469 C10.16910306 18.44279855 10.07782896 19.51245259 9 22 C3.99067379 25.92034225 -0.15429769 26.62395365 -6.46875 26.3984375 C-9.90871603 25.85696137 -11.71425175 24.59051468 -14 22 C-15.60745059 18.78509882 -15.40305242 16.5698929 -15 13 C-12.2994197 7.90747714 -6.29159351 0 0 0 Z " fill="#F8F8F8" transform="translate(651,57)"/>
<path d="M0 0 C4.55555556 0.55555556 4.55555556 0.55555556 6 2 C6.02937717 4.80189558 5.99535888 7.57563624 5.9140625 10.375 C5.89282318 11.21466309 5.87158386 12.05432617 5.84970093 12.91943359 C5.8033571 14.69830948 5.75442247 16.47711944 5.703125 18.25585938 C5.62533765 20.98813992 5.55818728 23.72053719 5.4921875 26.453125 C5.44595237 28.17710061 5.39909823 29.90105976 5.3515625 31.625 C5.33171295 32.44790527 5.3118634 33.27081055 5.29141235 34.11865234 C5.11500913 39.88499087 5.11500913 39.88499087 4 41 C1.5625 41.1875 1.5625 41.1875 -1 41 C-3 39 -3 39 -3.24291992 36.56079102 C-3.23881104 35.55201904 -3.23470215 34.54324707 -3.23046875 33.50390625 C-3.22853516 32.38693359 -3.22660156 31.26996094 -3.22460938 30.11914062 C-3.21236328 28.94544922 -3.20011719 27.77175781 -3.1875 26.5625 C-3.18685547 25.42361328 -3.18621094 24.28472656 -3.18554688 23.11132812 C-3.08260082 3.08260082 -3.08260082 3.08260082 0 0 Z " fill="#0A0A0A" transform="translate(1384,48)"/>
<path d="M0 0 C4.55555556 0.55555556 4.55555556 0.55555556 6 2 C6.02937717 4.80189558 5.99535888 7.57563624 5.9140625 10.375 C5.89282318 11.21466309 5.87158386 12.05432617 5.84970093 12.91943359 C5.8033571 14.69830948 5.75442247 16.47711944 5.703125 18.25585938 C5.62533765 20.98813992 5.55818728 23.72053719 5.4921875 26.453125 C5.44595237 28.17710061 5.39909823 29.90105976 5.3515625 31.625 C5.33171295 32.44790527 5.3118634 33.27081055 5.29141235 34.11865234 C5.11500913 39.88499087 5.11500913 39.88499087 4 41 C1.5625 41.1875 1.5625 41.1875 -1 41 C-3 39 -3 39 -3.24291992 36.56079102 C-3.23881104 35.55201904 -3.23470215 34.54324707 -3.23046875 33.50390625 C-3.22853516 32.38693359 -3.22660156 31.26996094 -3.22460938 30.11914062 C-3.21236328 28.94544922 -3.20011719 27.77175781 -3.1875 26.5625 C-3.18685547 25.42361328 -3.18621094 24.28472656 -3.18554688 23.11132812 C-3.08260082 3.08260082 -3.08260082 3.08260082 0 0 Z " fill="#0A0A0A" transform="translate(1045,48)"/>
<path d="M0 0 C4.55555556 0.55555556 4.55555556 0.55555556 6 2 C6.02937717 4.80189558 5.99535888 7.57563624 5.9140625 10.375 C5.89282318 11.21466309 5.87158386 12.05432617 5.84970093 12.91943359 C5.8033571 14.69830948 5.75442247 16.47711944 5.703125 18.25585938 C5.62533765 20.98813992 5.55818728 23.72053719 5.4921875 26.453125 C5.44595237 28.17710061 5.39909823 29.90105976 5.3515625 31.625 C5.33171295 32.44790527 5.3118634 33.27081055 5.29141235 34.11865234 C5.11500913 39.88499087 5.11500913 39.88499087 4 41 C1.5625 41.1875 1.5625 41.1875 -1 41 C-3 39 -3 39 -3.24291992 36.56079102 C-3.23881104 35.55201904 -3.23470215 34.54324707 -3.23046875 33.50390625 C-3.22853516 32.38693359 -3.22660156 31.26996094 -3.22460938 30.11914062 C-3.21236328 28.94544922 -3.20011719 27.77175781 -3.1875 26.5625 C-3.18685547 25.42361328 -3.18621094 24.28472656 -3.18554688 23.11132812 C-3.08260082 3.08260082 -3.08260082 3.08260082 0 0 Z " fill="#0A0A0A" transform="translate(184,48)"/>
<path d="M0 0 C2.89104063 0.60266406 4.38678687 1.6083528 6.5859375 3.5390625 C-0.45480992 8.07193307 -7.61240537 11.50955303 -15.4140625 14.5390625 C-15.1980903 9.24774357 -14.07252471 5.79789911 -10.4296875 1.86328125 C-7.08749688 -0.33246026 -3.89777132 -0.1200994 0 0 Z " fill="#F4F4F4" transform="translate(359.4140625,54.4609375)"/>
<path d="M0 0 C0.66 0.33 1.32 0.66 2 1 C2.92830843 5.63581186 3.40801131 10.30637542 4 15 C-2.93 16.485 -2.93 16.485 -10 18 C-8.2868951 13.71723774 -6.31473175 10.05400067 -3.875 6.1875 C-3.50246094 5.59001953 -3.12992188 4.99253906 -2.74609375 4.37695312 C-1.8342952 2.91573749 -0.91764024 1.45755415 0 0 Z " fill="#EFEFEF" transform="translate(739,45)"/>
<path d="M0 0 C0.66 0.33 1.32 0.66 2 1 C2.92830843 5.63581186 3.40801131 10.30637542 4 15 C-2.93 16.485 -2.93 16.485 -10 18 C-8.2868951 13.71723774 -6.31473175 10.05400067 -3.875 6.1875 C-3.50246094 5.59001953 -3.12992188 4.99253906 -2.74609375 4.37695312 C-1.8342952 2.91573749 -0.91764024 1.45755415 0 0 Z " fill="#EFEFEF" transform="translate(66,45)"/>
<path d="M0 0 C3.125 0.375 3.125 0.375 6 1 C6.625 3.875 6.625 3.875 7 7 C5 9 5 9 2.5 9.25 C0 9 0 9 -2 7 C-2.25 4.5 -2.25 4.5 -2 2 C-1.34 1.34 -0.68 0.68 0 0 Z " fill="#0A0A0A" transform="translate(1385,29)"/>
<path d="M0 0 C3.125 0.375 3.125 0.375 6 1 C6.625 3.875 6.625 3.875 7 7 C5 9 5 9 2.5 9.25 C0 9 0 9 -2 7 C-2.25 4.5 -2.25 4.5 -2 2 C-1.34 1.34 -0.68 0.68 0 0 Z " fill="#0A0A0A" transform="translate(1046,29)"/>
<path d="M0 0 C3.125 0.375 3.125 0.375 6 1 C6.625 3.875 6.625 3.875 7 7 C5 9 5 9 2.5 9.25 C0 9 0 9 -2 7 C-2.25 4.5 -2.25 4.5 -2 2 C-1.34 1.34 -0.68 0.68 0 0 Z " fill="#0A0A0A" transform="translate(185,29)"/>
<path d="M0 0 C0.99 0 1.98 0 3 0 C3.36637589 6.35051546 3.36637589 6.35051546 1.625 9.4375 C0 11 0 11 -2 11 C-2.25 3.375 -2.25 3.375 0 0 Z " fill="#F4F4F4" transform="translate(655,34)"/>
</svg>
